<?xml version="1.0" encoding="utf-8"?>
<!-- Generator: Adobe Illustrator 24.0.3, SVG Export Plug-In . SVG Version: 6.00 Build 0)  -->
<svg version="1.1" id="Layer_1" xmlns="http://www.w3.org/2000/svg" xmlns:xlink="http://www.w3.org/1999/xlink" x="0px" y="0px"
	 viewBox="0 0 2047.1 1279.7" style="enable-background:new 0 0 2047.1 1279.7;" xml:space="preserve">
<style type="text/css">
	.st0{fill:#2A2A2A;}
</style>
<path class="st0" d="M1983.2,128.2l64-64L1982.9,0l-64,64l-64-64l-64,64l-64-64l-64,64l-64-64l-64,64l-64-64l-64,64l-64-64l-64,64
	l-64-64l-64,64l-64-64l-64,64l-64-64l-64,64l-64-64l-64,64l-64-64l-64,64l-64-64l-64,64L448,0l-64,64l-64-64l-64,64l-64-64l-64,64
	l-64-64L0,64.3l64,64l-64,64l64,64l-64,64l64,64L0,448l64,64l-64,64l64,64l-64,64l64,64l-64,64l64,64l-64,64l64,64l-64,64l64,64
	l-64,64l64.3,64.3l64-64l64,64l64-64l64,64l64-64l64,64l64-64l64,64l64-64l64,64l64-64l64,64l64-64l64,64l64-64l64,64l64-64l64,64
	l64-64l64,64l64-64l64,64l64-64l64,64l64-64l64,64l64-64l64,64l64-64l64,64l64.3-64.3l-64-64l64-64l-64-64l64-64l-64-64l64-64
	l-64-64l64-64l-64-64l64-64l-64-64l64-64l-64-64l64-64l-64-64l64-64L1983.2,128.2z M1982.9,0.6l63.6,63.6l-63.6,63.6v0v0l-63.6-63.6
	L1982.9,0.6z M1855,1151.2L1855,1151.2l-63.6-63.6l63.6-63.6v0v0l63.6,63.6L1855,1151.2L1855,1151.2z M1727,1151.2L1727,1151.2
	l-63.6-63.6l63.6-63.6v0l0,0l63.6,63.6L1727,1151.2L1727,1151.2z M1599.1,1151.2L1599.1,1151.2l-63.6-63.6l63.6-63.6l0,0v0
	l63.6,63.6L1599.1,1151.2L1599.1,1151.2z M1471.2,1151.2L1471.2,1151.2l-63.6-63.6l63.6-63.6l0,0v0l63.6,63.6L1471.2,1151.2
	L1471.2,1151.2z M1343.3,1151.2L1343.3,1151.2l-63.6-63.6l63.6-63.6v0v0l63.6,63.6L1343.3,1151.2L1343.3,1151.2z M1215.4,1151.2
	L1215.4,1151.2l-63.6-63.6l63.6-63.6v0v0l63.6,63.6L1215.4,1151.2L1215.4,1151.2z M1087.5,1151.2L1087.5,1151.2l-63.6-63.6
	l63.6-63.6v0v0l63.6,63.6L1087.5,1151.2L1087.5,1151.2z M959.6,1151.2L959.6,1151.2l-63.6-63.6l63.6-63.6l0,0l0,0l63.6,63.6
	L959.6,1151.2L959.6,1151.2z M831.7,1151.2L831.7,1151.2l-63.6-63.6l63.6-63.6l0,0l0,0l63.6,63.6L831.7,1151.2L831.7,1151.2z
	 M703.8,1151.2L703.8,1151.2l-63.6-63.6l63.6-63.6l0,0l0,0l63.6,63.6L703.8,1151.2L703.8,1151.2z M575.9,1151.2L575.9,1151.2
	l-63.6-63.6l63.6-63.6l0,0l0,0l63.6,63.6L575.9,1151.2L575.9,1151.2z M448,1151.2L448,1151.2l-63.6-63.6l63.6-63.6l0,0l0,0
	l63.6,63.6L448,1151.2L448,1151.2z M320.1,1151.2L320.1,1151.2l-63.6-63.6l63.6-63.6l0,0l0,0l63.6,63.6L320.1,1151.2L320.1,1151.2z
	 M192.2,1151.2L192.2,1151.2l-63.6-63.6l63.6-63.6l0,0l0,0l63.6,63.6L192.2,1151.2L192.2,1151.2z M192.2,128.5L192.2,128.5
	l63.6,63.6l-63.6,63.6l0,0l0,0l-63.6-63.6L192.2,128.5L192.2,128.5z M320.1,128.5L320.1,128.5l63.6,63.6l-63.6,63.6l0,0l0,0
	l-63.6-63.6L320.1,128.5L320.1,128.5z M448,128.5L448,128.5l63.6,63.6L448,255.8l0,0l0,0l-63.6-63.6L448,128.5L448,128.5z
	 M575.9,128.5L575.9,128.5l63.6,63.6l-63.6,63.6l0,0l0,0l-63.6-63.6L575.9,128.5L575.9,128.5z M703.8,128.5L703.8,128.5l63.6,63.6
	l-63.6,63.6l0,0l0,0l-63.6-63.6L703.8,128.5L703.8,128.5z M831.7,128.5L831.7,128.5l63.6,63.6l-63.6,63.6l0,0l0,0l-63.6-63.6
	L831.7,128.5L831.7,128.5z M959.6,128.5L959.6,128.5l63.6,63.6l-63.6,63.6l0,0l0,0L896,192.2L959.6,128.5L959.6,128.5z
	 M1087.5,128.5L1087.5,128.5l63.6,63.6l-63.6,63.6v0v0l-63.6-63.6L1087.5,128.5L1087.5,128.5z M1215.4,128.5L1215.4,128.5l63.6,63.6
	l-63.6,63.6v0v0l-63.6-63.6L1215.4,128.5L1215.4,128.5z M1343.3,128.5L1343.3,128.5l63.6,63.6l-63.6,63.6v0v0l-63.6-63.6
	L1343.3,128.5L1343.3,128.5z M1471.2,128.5L1471.2,128.5l63.6,63.6l-63.6,63.6v0l0,0l-63.6-63.6L1471.2,128.5L1471.2,128.5z
	 M1599.1,128.5L1599.1,128.5l63.6,63.6l-63.6,63.6v0l0,0l-63.6-63.6L1599.1,128.5L1599.1,128.5z M1727,128.5L1727,128.5l63.6,63.6
	l-63.6,63.6l0,0v0l-63.6-63.6L1727,128.5L1727,128.5z M1855,128.5L1855,128.5l63.6,63.6l-63.6,63.6v0v0l-63.6-63.6L1855,128.5
	L1855,128.5z M1855,1023.3L1855,1023.3l-63.6-63.6L1855,896v0v0l63.6,63.6L1855,1023.3L1855,1023.3z M1791,1087.2l-63.6-63.6
	l63.6-63.6l63.6,63.6L1791,1087.2z M1727,1023.3L1727,1023.3l-63.6-63.6L1727,896v0l0,0l63.6,63.6L1727,1023.3L1727,1023.3z
	 M1663.1,1087.2l-63.6-63.6l63.6-63.6l63.6,63.6L1663.1,1087.2z M1599.1,1023.3L1599.1,1023.3l-63.6-63.6l63.6-63.6l0,0v0l63.6,63.6
	L1599.1,1023.3L1599.1,1023.3z M1535.2,1087.2l-63.6-63.6l63.6-63.6l63.6,63.6L1535.2,1087.2z M1471.2,1023.3L1471.2,1023.3
	l-63.6-63.6l63.6-63.6l0,0v0l63.6,63.6L1471.2,1023.3L1471.2,1023.3z M1407.3,1087.2l-63.6-63.6l63.6-63.6l63.6,63.6L1407.3,1087.2z
	 M1343.3,1023.3L1343.3,1023.3l-63.6-63.6l63.6-63.6v0v0l63.6,63.6L1343.3,1023.3L1343.3,1023.3z M1279.4,1087.2l-63.6-63.6
	l63.6-63.6l63.6,63.6L1279.4,1087.2z M1215.4,1023.3L1215.4,1023.3l-63.6-63.6l63.6-63.6v0v0l63.6,63.6L1215.4,1023.3L1215.4,1023.3
	z M1151.5,1087.2l-63.6-63.6l63.6-63.6l63.6,63.6L1151.5,1087.2z M1087.5,1023.3L1087.5,1023.3l-63.6-63.6l63.6-63.6v0v0l63.6,63.6
	L1087.5,1023.3L1087.5,1023.3z M1023.6,1087.2l-63.6-63.6l63.6-63.6l63.6,63.6L1023.6,1087.2z M959.6,1023.3L959.6,1023.3L896,959.6
	l63.6-63.6l0,0l0,0l63.6,63.6L959.6,1023.3L959.6,1023.3z M895.7,1087.2l-63.6-63.6l63.6-63.6l63.6,63.6L895.7,1087.2z
	 M831.7,1023.3L831.7,1023.3l-63.6-63.6l63.6-63.6l0,0l0,0l63.6,63.6L831.7,1023.3L831.7,1023.3z M767.7,1087.2l-63.6-63.6
	l63.6-63.6l63.6,63.6L767.7,1087.2z M703.8,1023.3L703.8,1023.3l-63.6-63.6l63.6-63.6l0,0l0,0l63.6,63.6L703.8,1023.3L703.8,1023.3z
	 M639.8,1087.2l-63.6-63.6l63.6-63.6l63.6,63.6L639.8,1087.2z M575.9,1023.3L575.9,1023.3l-63.6-63.6l63.6-63.6l0,0l0,0l63.6,63.6
	L575.9,1023.3L575.9,1023.3z M511.9,1087.2l-63.6-63.6l63.6-63.6l63.6,63.6L511.9,1087.2z M448,1023.3L448,1023.3l-63.6-63.6
	L448,896l0,0l0,0l63.6,63.6L448,1023.3L448,1023.3z M384,1087.2l-63.6-63.6l63.6-63.6l63.6,63.6L384,1087.2z M320.1,1023.3
	L320.1,1023.3l-63.6-63.6l63.6-63.6l0,0l0,0l63.6,63.6L320.1,1023.3L320.1,1023.3z M256.1,1087.2l-63.6-63.6l63.6-63.6l63.6,63.6
	L256.1,1087.2z M192.2,1023.3L192.2,1023.3l-63.6-63.6l63.6-63.6l0,0l0,0l63.6,63.6L192.2,1023.3L192.2,1023.3z M192.2,256.4
	L192.2,256.4l63.6,63.6l-63.6,63.6l0,0l0,0l-63.6-63.6L192.2,256.4L192.2,256.4z M256.1,192.5l63.6,63.6l-63.6,63.6l-63.6-63.6
	L256.1,192.5z M320.1,256.4L320.1,256.4l63.6,63.6l-63.6,63.6l0,0l0,0l-63.6-63.6L320.1,256.4L320.1,256.4z M384,192.5l63.6,63.6
	L384,319.8l-63.6-63.6L384,192.5z M448,256.4L448,256.4l63.6,63.6L448,383.7l0,0l0,0l-63.6-63.6L448,256.4L448,256.4z M511.9,192.5
	l63.6,63.6l-63.6,63.6l-63.6-63.6L511.9,192.5z M575.9,256.4L575.9,256.4l63.6,63.6l-63.6,63.6l0,0l0,0l-63.6-63.6L575.9,256.4
	L575.9,256.4z M639.8,192.5l63.6,63.6l-63.6,63.6l-63.6-63.6L639.8,192.5z M703.8,256.4L703.8,256.4l63.6,63.6l-63.6,63.6l0,0l0,0
	l-63.6-63.6L703.8,256.4L703.8,256.4z M767.7,192.5l63.6,63.6l-63.6,63.6l-63.6-63.6L767.7,192.5z M831.7,256.4L831.7,256.4
	l63.6,63.6l-63.6,63.6l0,0l0,0l-63.6-63.6L831.7,256.4L831.7,256.4z M895.7,192.5l63.6,63.6l-63.6,63.6L832,256.1L895.7,192.5z
	 M959.6,256.4L959.6,256.4l63.6,63.6l-63.6,63.6l0,0l0,0L896,320.1L959.6,256.4L959.6,256.4z M1023.6,192.5l63.6,63.6l-63.6,63.6
	l-63.6-63.6L1023.6,192.5z M1087.5,256.4L1087.5,256.4l63.6,63.6l-63.6,63.6v0v0l-63.6-63.6L1087.5,256.4L1087.5,256.4z
	 M1151.5,192.5l63.6,63.6l-63.6,63.6l-63.6-63.6L1151.5,192.5z M1215.4,256.4L1215.4,256.4l63.6,63.6l-63.6,63.6v0v0l-63.6-63.6
	L1215.4,256.4L1215.4,256.4z M1279.4,192.5l63.6,63.6l-63.6,63.6l-63.6-63.6L1279.4,192.5z M1343.3,256.4L1343.3,256.4l63.6,63.6
	l-63.6,63.6v0v0l-63.6-63.6L1343.3,256.4L1343.3,256.4z M1407.3,192.5l63.6,63.6l-63.6,63.6l-63.6-63.6L1407.3,192.5z M1471.2,256.4
	L1471.2,256.4l63.6,63.6l-63.6,63.6v0l0,0l-63.6-63.6L1471.2,256.4L1471.2,256.4z M1535.2,192.5l63.6,63.6l-63.6,63.6l-63.6-63.6
	L1535.2,192.5z M1599.1,256.4L1599.1,256.4l63.6,63.6l-63.6,63.6v0l0,0l-63.6-63.6L1599.1,256.4L1599.1,256.4z M1663.1,192.5
	l63.6,63.6l-63.6,63.6l-63.6-63.6L1663.1,192.5z M1727,256.4L1727,256.4l63.6,63.6l-63.6,63.6l0,0v0l-63.6-63.6L1727,256.4
	L1727,256.4z M1791,192.5l63.6,63.6l-63.6,63.6l-63.6-63.6L1791,192.5z M1791,959.3l-63.6-63.6L1791,832l63.6,63.6L1791,959.3z
	 M1727,895.3L1727,895.3l-63.6-63.6l63.6-63.6v0l0,0l63.6,63.6L1727,895.3L1727,895.3z M1663.1,959.3l-63.6-63.6l63.6-63.6
	l63.6,63.6L1663.1,959.3z M1599.1,895.3L1599.1,895.3l-63.6-63.6l63.6-63.6l0,0v0l63.6,63.6L1599.1,895.3L1599.1,895.3z
	 M1535.2,959.3l-63.6-63.6l63.6-63.6l63.6,63.6L1535.2,959.3z M1471.2,895.3L1471.2,895.3l-63.6-63.6l63.6-63.6l0,0v0l63.6,63.6
	L1471.2,895.3L1471.2,895.3z M1407.3,959.3l-63.6-63.6l63.6-63.6l63.6,63.6L1407.3,959.3z M1343.3,895.3L1343.3,895.3l-63.6-63.6
	l63.6-63.6v0v0l63.6,63.6L1343.3,895.3L1343.3,895.3z M1279.4,959.3l-63.6-63.6l63.6-63.6l63.6,63.6L1279.4,959.3z M1215.4,895.3
	L1215.4,895.3l-63.6-63.6l63.6-63.6v0v0l63.6,63.6L1215.4,895.3L1215.4,895.3z M1151.5,959.3l-63.6-63.6l63.6-63.6l63.6,63.6
	L1151.5,959.3z M1087.5,895.3L1087.5,895.3l-63.6-63.6l63.6-63.6v0v0l63.6,63.6L1087.5,895.3L1087.5,895.3z M1023.6,959.3
	l-63.6-63.6l63.6-63.6l63.6,63.6L1023.6,959.3z M959.6,895.3L959.6,895.3L896,831.7l63.6-63.6l0,0l0,0l63.6,63.6L959.6,895.3
	L959.6,895.3z M895.7,959.3L832,895.7l63.6-63.6l63.6,63.6L895.7,959.3z M831.7,895.3L831.7,895.3l-63.6-63.6l63.6-63.6l0,0l0,0
	l63.6,63.6L831.7,895.3L831.7,895.3z M767.7,959.3l-63.6-63.6l63.6-63.6l63.6,63.6L767.7,959.3z M703.8,895.3L703.8,895.3
	l-63.6-63.6l63.6-63.6l0,0l0,0l63.6,63.6L703.8,895.3L703.8,895.3z M639.8,959.3l-63.6-63.6l63.6-63.6l63.6,63.6L639.8,959.3z
	 M575.9,895.3L575.9,895.3l-63.6-63.6l63.6-63.6l0,0l0,0l63.6,63.6L575.9,895.3L575.9,895.3z M511.9,959.3l-63.6-63.6l63.6-63.6
	l63.6,63.6L511.9,959.3z M448,895.3L448,895.3l-63.6-63.6l63.6-63.6l0,0l0,0l63.6,63.6L448,895.3L448,895.3z M384,959.3l-63.6-63.6
	L384,832l63.6,63.6L384,959.3z M320.1,895.3L320.1,895.3l-63.6-63.6l63.6-63.6l0,0l0,0l63.6,63.6L320.1,895.3L320.1,895.3z
	 M256.1,959.3l-63.6-63.6l63.6-63.6l63.6,63.6L256.1,959.3z M256.1,320.4l63.6,63.6l-63.6,63.6L192.5,384L256.1,320.4z M320.1,384.3
	L320.1,384.3l63.6,63.6l-63.6,63.6l0,0l0,0L256.4,448L320.1,384.3L320.1,384.3z M384,320.4l63.6,63.6L384,447.7L320.4,384L384,320.4
	z M448,384.3L448,384.3l63.6,63.6L448,511.6l0,0l0,0L384.3,448L448,384.3L448,384.3z M511.9,320.4l63.6,63.6l-63.6,63.6L448.3,384
	L511.9,320.4z M575.9,384.3L575.9,384.3l63.6,63.6l-63.6,63.6l0,0l0,0L512.2,448L575.9,384.3L575.9,384.3z M639.8,320.4l63.6,63.6
	l-63.6,63.6L576.2,384L639.8,320.4z M703.8,384.3L703.8,384.3l63.6,63.6l-63.6,63.6l0,0l0,0L640.1,448L703.8,384.3L703.8,384.3z
	 M767.7,320.4l63.6,63.6l-63.6,63.6L704.1,384L767.7,320.4z M831.7,384.3L831.7,384.3l63.6,63.6l-63.6,63.6l0,0l0,0L768.1,448
	L831.7,384.3L831.7,384.3z M895.7,320.4l63.6,63.6l-63.6,63.6L832,384L895.7,320.4z M959.6,384.3L959.6,384.3l63.6,63.6l-63.6,63.6
	l0,0l0,0L896,448L959.6,384.3L959.6,384.3z M1023.6,320.4l63.6,63.6l-63.6,63.6L959.9,384L1023.6,320.4z M1087.5,384.3L1087.5,384.3
	l63.6,63.6l-63.6,63.6v0v0l-63.6-63.6L1087.5,384.3L1087.5,384.3z M1151.5,320.4l63.6,63.6l-63.6,63.6l-63.6-63.6L1151.5,320.4z
	 M1215.4,384.3L1215.4,384.3l63.6,63.6l-63.6,63.6v0v0l-63.6-63.6L1215.4,384.3L1215.4,384.3z M1279.4,320.4L1343,384l-63.6,63.6
	l-63.6-63.6L1279.4,320.4z M1343.3,384.3L1343.3,384.3L1407,448l-63.6,63.6v0v0l-63.6-63.6L1343.3,384.3L1343.3,384.3z
	 M1407.3,320.4l63.6,63.6l-63.6,63.6l-63.6-63.6L1407.3,320.4z M1471.2,384.3L1471.2,384.3l63.6,63.6l-63.6,63.6v0l0,0l-63.6-63.6
	L1471.2,384.3L1471.2,384.3z M1535.2,320.4l63.6,63.6l-63.6,63.6l-63.6-63.6L1535.2,320.4z M1599.1,384.3L1599.1,384.3l63.6,63.6
	l-63.6,63.6v0l0,0l-63.6-63.6L1599.1,384.3L1599.1,384.3z M1663.1,320.4l63.6,63.6l-63.6,63.6l-63.6-63.6L1663.1,320.4z M1727,384.3
	L1727,384.3l63.6,63.6l-63.6,63.6l0,0v0l-63.6-63.6L1727,384.3L1727,384.3z M1727,767.4L1727,767.4l-63.6-63.6l63.6-63.6v0l0,0
	l63.6,63.6L1727,767.4L1727,767.4z M1663.1,831.4l-63.6-63.6l63.6-63.6l63.6,63.6L1663.1,831.4z M1599.1,767.4L1599.1,767.4
	l-63.6-63.6l63.6-63.6l0,0v0l63.6,63.6L1599.1,767.4L1599.1,767.4z M1535.2,831.4l-63.6-63.6l63.6-63.6l63.6,63.6L1535.2,831.4z
	 M1471.2,767.4L1471.2,767.4l-63.6-63.6l63.6-63.6l0,0v0l63.6,63.6L1471.2,767.4L1471.2,767.4z M1407.3,831.4l-63.6-63.6l63.6-63.6
	l63.6,63.6L1407.3,831.4z M1343.3,767.4L1343.3,767.4l-63.6-63.6l63.6-63.6v0v0l63.6,63.6L1343.3,767.4L1343.3,767.4z M1279.4,831.4
	l-63.6-63.6l63.6-63.6l63.6,63.6L1279.4,831.4z M1215.4,767.4L1215.4,767.4l-63.6-63.6l63.6-63.6v0v0l63.6,63.6L1215.4,767.4
	L1215.4,767.4z M1151.5,831.4l-63.6-63.6l63.6-63.6l63.6,63.6L1151.5,831.4z M1087.5,767.4L1087.5,767.4l-63.6-63.6l63.6-63.6v0v0
	l63.6,63.6L1087.5,767.4L1087.5,767.4z M1023.6,831.4l-63.6-63.6l63.6-63.6l63.6,63.6L1023.6,831.4z M959.6,767.4L959.6,767.4
	L896,703.8l63.6-63.6l0,0l0,0l63.6,63.6L959.6,767.4L959.6,767.4z M895.7,831.4L832,767.7l63.6-63.6l63.6,63.6L895.7,831.4z
	 M831.7,767.4L831.7,767.4l-63.6-63.6l63.6-63.6l0,0l0,0l63.6,63.6L831.7,767.4L831.7,767.4z M767.7,831.4l-63.6-63.6l63.6-63.6
	l63.6,63.6L767.7,831.4z M703.8,767.4L703.8,767.4l-63.6-63.6l63.6-63.6l0,0l0,0l63.6,63.6L703.8,767.4L703.8,767.4z M639.8,831.4
	l-63.6-63.6l63.6-63.6l63.6,63.6L639.8,831.4z M575.9,767.4L575.9,767.4l-63.6-63.6l63.6-63.6l0,0l0,0l63.6,63.6L575.9,767.4
	L575.9,767.4z M511.9,831.4l-63.6-63.6l63.6-63.6l63.6,63.6L511.9,831.4z M448,767.4L448,767.4l-63.6-63.6l63.6-63.6l0,0l0,0
	l63.6,63.6L448,767.4L448,767.4z M384,831.4l-63.6-63.6l63.6-63.6l63.6,63.6L384,831.4z M320.1,767.4L320.1,767.4l-63.6-63.6
	l63.6-63.6l0,0l0,0l63.6,63.6L320.1,767.4L320.1,767.4z M320.1,512.2L320.1,512.2l63.6,63.6l-63.6,63.6l0,0l0,0l-63.6-63.6
	L320.1,512.2L320.1,512.2z M384,448.3l63.6,63.6L384,575.6l-63.6-63.6L384,448.3z M448,512.2L448,512.2l63.6,63.6L448,639.5l0,0l0,0
	l-63.6-63.6L448,512.2L448,512.2z M511.9,448.3l63.6,63.6l-63.6,63.6l-63.6-63.6L511.9,448.3z M575.9,512.2L575.9,512.2l63.6,63.6
	l-63.6,63.6l0,0l0,0l-63.6-63.6L575.9,512.2L575.9,512.2z M639.8,448.3l63.6,63.6l-63.6,63.6l-63.6-63.6L639.8,448.3z M703.8,512.2
	L703.8,512.2l63.6,63.6l-63.6,63.6l0,0l0,0l-63.6-63.6L703.8,512.2L703.8,512.2z M767.7,448.3l63.6,63.6l-63.6,63.6l-63.6-63.6
	L767.7,448.3z M831.7,512.2L831.7,512.2l63.6,63.6l-63.6,63.6l0,0l0,0l-63.6-63.6L831.7,512.2L831.7,512.2z M895.7,448.3l63.6,63.6
	l-63.6,63.6L832,511.9L895.7,448.3z M959.6,512.2L959.6,512.2l63.6,63.6l-63.6,63.6l0,0l0,0L896,575.9L959.6,512.2L959.6,512.2z
	 M1023.6,448.3l63.6,63.6l-63.6,63.6l-63.6-63.6L1023.6,448.3z M1087.5,512.2L1087.5,512.2l63.6,63.6l-63.6,63.6v0v0l-63.6-63.6
	L1087.5,512.2L1087.5,512.2z M1151.5,448.3l63.6,63.6l-63.6,63.6l-63.6-63.6L1151.5,448.3z M1215.4,512.2L1215.4,512.2l63.6,63.6
	l-63.6,63.6v0v0l-63.6-63.6L1215.4,512.2L1215.4,512.2z M1279.4,448.3l63.6,63.6l-63.6,63.6l-63.6-63.6L1279.4,448.3z M1343.3,512.2
	L1343.3,512.2l63.6,63.6l-63.6,63.6v0v0l-63.6-63.6L1343.3,512.2L1343.3,512.2z M1407.3,448.3l63.6,63.6l-63.6,63.6l-63.6-63.6
	L1407.3,448.3z M1471.2,512.2L1471.2,512.2l63.6,63.6l-63.6,63.6v0l0,0l-63.6-63.6L1471.2,512.2L1471.2,512.2z M1535.2,448.3
	l63.6,63.6l-63.6,63.6l-63.6-63.6L1535.2,448.3z M1599.1,512.2L1599.1,512.2l63.6,63.6l-63.6,63.6v0l0,0l-63.6-63.6L1599.1,512.2
	L1599.1,512.2z M1663.1,448.3l63.6,63.6l-63.6,63.6l-63.6-63.6L1663.1,448.3z M1663.1,703.5l-63.6-63.6l63.6-63.6l63.6,63.6
	L1663.1,703.5z M1535.2,703.5l-63.6-63.6l63.6-63.6l63.6,63.6L1535.2,703.5z M1407.3,703.5l-63.6-63.6l63.6-63.6l63.6,63.6
	L1407.3,703.5z M1279.4,703.5l-63.6-63.6l63.6-63.6l63.6,63.6L1279.4,703.5z M1151.5,703.5l-63.6-63.6l63.6-63.6l63.6,63.6
	L1151.5,703.5z M1023.6,703.5l-63.6-63.6l63.6-63.6l63.6,63.6L1023.6,703.5z M895.7,703.5L832,639.8l63.6-63.6l63.6,63.6
	L895.7,703.5z M767.7,703.5l-63.6-63.6l63.6-63.6l63.6,63.6L767.7,703.5z M639.8,703.5l-63.6-63.6l63.6-63.6l63.6,63.6L639.8,703.5z
	 M511.9,703.5l-63.6-63.6l63.6-63.6l63.6,63.6L511.9,703.5z M384,703.5l-63.6-63.6l63.6-63.6l63.6,63.6L384,703.5z M1727,639.5
	L1727,639.5l-63.6-63.6l63.6-63.6v0l0,0l63.6,63.6L1727,639.5L1727,639.5z M256.1,448.3l63.6,63.6l-63.6,63.6l-63.6-63.6
	L256.1,448.3z M256.1,576.2l63.6,63.6l-63.6,63.6l-63.6-63.6L256.1,576.2z M256.1,704.1l63.6,63.6l-63.6,63.6l-63.6-63.6
	L256.1,704.1z M1791,831.4l-63.6-63.6l63.6-63.6l63.6,63.6L1791,831.4z M1791,703.5l-63.6-63.6l63.6-63.6l63.6,63.6L1791,703.5z
	 M1791,575.6l-63.6-63.6l63.6-63.6l63.6,63.6L1791,575.6z M1791,447.7l-63.6-63.6l63.6-63.6l63.6,63.6L1791,447.7z M192.2,384.3
	L192.2,384.3l63.6,63.6l-63.6,63.6l0,0l0,0L128.5,448L192.2,384.3L192.2,384.3z M192.2,512.2L192.2,512.2l63.6,63.6l-63.6,63.6l0,0
	l0,0l-63.6-63.6L192.2,512.2L192.2,512.2z M192.2,640.1L192.2,640.1l63.6,63.6l-63.6,63.6l0,0l0,0l-63.6-63.6L192.2,640.1
	L192.2,640.1z M192.2,768.1L192.2,768.1l63.6,63.6l-63.6,63.6l0,0l0,0l-63.6-63.6L192.2,768.1L192.2,768.1z M1855,895.3L1855,895.3
	l-63.6-63.6l63.6-63.6v0v0l63.6,63.6L1855,895.3L1855,895.3z M1855,767.4L1855,767.4l-63.6-63.6l63.6-63.6v0v0l63.6,63.6L1855,767.4
	L1855,767.4z M1855,639.5L1855,639.5l-63.6-63.6l63.6-63.6v0v0l63.6,63.6L1855,639.5L1855,639.5z M1855,511.6L1855,511.6l-63.6-63.6
	l63.6-63.6v0v0l63.6,63.6L1855,511.6L1855,511.6z M1855,383.7L1855,383.7l-63.6-63.6l63.6-63.6v0v0l63.6,63.6L1855,383.7L1855,383.7
	z M1791,191.9l-63.6-63.6l63.6-63.6l63.6,63.6L1791,191.9z M1663.1,191.9l-63.6-63.6l63.6-63.6l63.6,63.6L1663.1,191.9z
	 M1535.2,191.9l-63.6-63.6l63.6-63.6l63.6,63.6L1535.2,191.9z M1407.3,191.9l-63.6-63.6l63.6-63.6l63.6,63.6L1407.3,191.9z
	 M1279.4,191.9l-63.6-63.6l63.6-63.6l63.6,63.6L1279.4,191.9z M1151.5,191.9l-63.6-63.6l63.6-63.6l63.6,63.6L1151.5,191.9z
	 M1023.6,191.9l-63.6-63.6l63.6-63.6l63.6,63.6L1023.6,191.9z M895.7,191.9L832,128.2l63.6-63.6l63.6,63.6L895.7,191.9z
	 M767.7,191.9l-63.6-63.6l63.6-63.6l63.6,63.6L767.7,191.9z M639.8,191.9l-63.6-63.6l63.6-63.6l63.6,63.6L639.8,191.9z M511.9,191.9
	l-63.6-63.6l63.6-63.6l63.6,63.6L511.9,191.9z M384,191.9l-63.6-63.6L384,64.6l63.6,63.6L384,191.9z M256.1,191.9l-63.6-63.6
	l63.6-63.6l63.6,63.6L256.1,191.9z M128.2,191.9l-63.6-63.6l63.6-63.6l63.6,63.6L128.2,191.9z M128.2,192.5l63.6,63.6l-63.6,63.6
	l-63.6-63.6L128.2,192.5z M128.2,320.4l63.6,63.6l-63.6,63.6L64.6,384L128.2,320.4z M128.2,448.3l63.6,63.6l-63.6,63.6l-63.6-63.6
	L128.2,448.3z M128.2,576.2l63.6,63.6l-63.6,63.6l-63.6-63.6L128.2,576.2z M128.2,704.1l63.6,63.6l-63.6,63.6l-63.6-63.6
	L128.2,704.1z M128.2,832l63.6,63.6l-63.6,63.6l-63.6-63.6L128.2,832z M128.2,959.9l63.6,63.6l-63.6,63.6l-63.6-63.6L128.2,959.9z
	 M128.2,1087.8l63.6,63.6l-63.6,63.6l-63.6-63.6L128.2,1087.8z M256.1,1087.8l63.6,63.6l-63.6,63.6l-63.6-63.6L256.1,1087.8z
	 M384,1087.8l63.6,63.6l-63.6,63.6l-63.6-63.6L384,1087.8z M511.9,1087.8l63.6,63.6l-63.6,63.6l-63.6-63.6L511.9,1087.8z
	 M639.8,1087.8l63.6,63.6l-63.6,63.6l-63.6-63.6L639.8,1087.8z M767.7,1087.8l63.6,63.6l-63.6,63.6l-63.6-63.6L767.7,1087.8z
	 M895.7,1087.8l63.6,63.6l-63.6,63.6l-63.6-63.6L895.7,1087.8z M1023.6,1087.8l63.6,63.6l-63.6,63.6l-63.6-63.6L1023.6,1087.8z
	 M1151.5,1087.8l63.6,63.6l-63.6,63.6l-63.6-63.6L1151.5,1087.8z M1279.4,1087.8l63.6,63.6l-63.6,63.6l-63.6-63.6L1279.4,1087.8z
	 M1407.3,1087.8l63.6,63.6l-63.6,63.6l-63.6-63.6L1407.3,1087.8z M1535.2,1087.8l63.6,63.6l-63.6,63.6l-63.6-63.6L1535.2,1087.8z
	 M1663.1,1087.8l63.6,63.6l-63.6,63.6l-63.6-63.6L1663.1,1087.8z M1791,1087.8l63.6,63.6l-63.6,63.6l-63.6-63.6L1791,1087.8z
	 M1918.9,1087.8l63.6,63.6l-63.6,63.6l-63.6-63.6L1918.9,1087.8z M1918.9,1087.2l-63.6-63.6l63.6-63.6l63.6,63.6L1918.9,1087.2z
	 M1918.9,959.3l-63.6-63.6l63.6-63.6l63.6,63.6L1918.9,959.3z M1918.9,831.4l-63.6-63.6l63.6-63.6l63.6,63.6L1918.9,831.4z
	 M1918.9,703.5l-63.6-63.6l63.6-63.6l63.6,63.6L1918.9,703.5z M1918.9,575.6l-63.6-63.6l63.6-63.6l63.6,63.6L1918.9,575.6z
	 M1918.9,447.7l-63.6-63.6l63.6-63.6l63.6,63.6L1918.9,447.7z M1918.9,319.8l-63.6-63.6l63.6-63.6l63.6,63.6L1918.9,319.8z
	 M1918.9,191.9l-63.6-63.6l63.6-63.6l63.6,63.6L1918.9,191.9z M1855,0.6l63.6,63.6l-63.6,63.6v0v0l-63.6-63.6L1855,0.6z M1727,0.6
	l63.6,63.6l-63.6,63.6l0,0v0l-63.6-63.6L1727,0.6z M1599.1,0.6l63.6,63.6l-63.6,63.6v0l0,0l-63.6-63.6L1599.1,0.6z M1471.2,0.6
	l63.6,63.6l-63.6,63.6v0l0,0l-63.6-63.6L1471.2,0.6z M1343.3,0.6l63.6,63.6l-63.6,63.6v0v0l-63.6-63.6L1343.3,0.6z M1215.4,0.6
	l63.6,63.6l-63.6,63.6v0v0l-63.6-63.6L1215.4,0.6z M1087.5,0.6l63.6,63.6l-63.6,63.6v0v0l-63.6-63.6L1087.5,0.6z M959.6,0.6
	l63.6,63.6l-63.6,63.6l0,0l0,0L896,64.3L959.6,0.6z M831.7,0.6l63.6,63.6l-63.6,63.6l0,0l0,0l-63.6-63.6L831.7,0.6z M703.8,0.6
	l63.6,63.6l-63.6,63.6l0,0l0,0l-63.6-63.6L703.8,0.6z M575.9,0.6l63.6,63.6l-63.6,63.6l0,0l0,0l-63.6-63.6L575.9,0.6z M448,0.6
	l63.6,63.6L448,127.9l0,0l0,0l-63.6-63.6L448,0.6z M320.1,0.6l63.6,63.6l-63.6,63.6l0,0l0,0l-63.6-63.6L320.1,0.6z M192.2,0.6
	l63.6,63.6l-63.6,63.6l0,0l0,0l-63.6-63.6L192.2,0.6z M0.6,64.3L64.3,0.6l63.6,63.6l-63.6,63.6l0,0l0,0L0.6,64.3z M0.6,192.2
	l63.6-63.6l0,0l0,0l63.6,63.6l-63.6,63.6l0,0l0,0L0.6,192.2z M0.6,320.1l63.6-63.6l0,0l0,0l63.6,63.6l-63.6,63.6l0,0l0,0L0.6,320.1z
	 M0.6,448l63.6-63.6l0,0l0,0l63.6,63.6l-63.6,63.6l0,0l0,0L0.6,448z M0.6,575.9l63.6-63.6l0,0l0,0l63.6,63.6l-63.6,63.6l0,0l0,0
	L0.6,575.9z M0.6,703.8l63.6-63.6l0,0l0,0l63.6,63.6l-63.6,63.6l0,0l0,0L0.6,703.8z M0.6,831.7l63.6-63.6l0,0l0,0l63.6,63.6
	l-63.6,63.6l0,0l0,0L0.6,831.7z M0.6,959.6L64.3,896l0,0l0,0l63.6,63.6l-63.6,63.6l0,0l0,0L0.6,959.6z M0.6,1087.5l63.6-63.6l0,0
	l0,0l63.6,63.6l-63.6,63.6h0h0L0.6,1087.5z M64.3,1279.1l-63.6-63.6l63.6-63.6l0,0l0,0l63.6,63.6L64.3,1279.1z M192.2,1279.1
	l-63.6-63.6l63.6-63.6l0,0l0,0l63.6,63.6L192.2,1279.1z M320.1,1279.1l-63.6-63.6l63.6-63.6l0,0l0,0l63.6,63.6L320.1,1279.1z
	 M448,1279.1l-63.6-63.6l63.6-63.6l0,0l0,0l63.6,63.6L448,1279.1z M575.9,1279.1l-63.6-63.6l63.6-63.6l0,0l0,0l63.6,63.6
	L575.9,1279.1z M703.8,1279.1l-63.6-63.6l63.6-63.6l0,0l0,0l63.6,63.6L703.8,1279.1z M831.7,1279.1l-63.6-63.6l63.6-63.6l0,0l0,0
	l63.6,63.6L831.7,1279.1z M959.6,1279.1l-63.6-63.6l63.6-63.6l0,0l0,0l63.6,63.6L959.6,1279.1z M1087.5,1279.1l-63.6-63.6l63.6-63.6
	v0v0l63.6,63.6L1087.5,1279.1z M1215.4,1279.1l-63.6-63.6l63.6-63.6v0v0l63.6,63.6L1215.4,1279.1z M1343.3,1279.1l-63.6-63.6
	l63.6-63.6v0v0l63.6,63.6L1343.3,1279.1z M1471.2,1279.1l-63.6-63.6l63.6-63.6l0,0v0l63.6,63.6L1471.2,1279.1z M1599.1,1279.1
	l-63.6-63.6l63.6-63.6l0,0v0l63.6,63.6L1599.1,1279.1z M1727,1279.1l-63.6-63.6l63.6-63.6v0l0,0l63.6,63.6L1727,1279.1z
	 M1855,1279.1l-63.6-63.6l63.6-63.6v0v0l63.6,63.6L1855,1279.1z M2046.5,1215.4l-63.6,63.6l-63.6-63.6l63.6-63.6v0v0L2046.5,1215.4z
	 M2046.5,1087.5l-63.6,63.6l0,0l0,0l-63.6-63.6l63.6-63.6v0v0L2046.5,1087.5z M2046.5,959.6l-63.6,63.6v0v0l-63.6-63.6l63.6-63.6v0
	v0L2046.5,959.6z M2046.5,831.7l-63.6,63.6v0v0l-63.6-63.6l63.6-63.6v0v0L2046.5,831.7z M2046.5,703.8l-63.6,63.6v0v0l-63.6-63.6
	l63.6-63.6v0v0L2046.5,703.8z M2046.5,575.9l-63.6,63.6v0v0l-63.6-63.6l63.6-63.6v0v0L2046.5,575.9z M2046.5,448l-63.6,63.6v0v0
	l-63.6-63.6l63.6-63.6v0v0L2046.5,448z M2046.5,320.1l-63.6,63.6v0v0l-63.6-63.6l63.6-63.6v0v0L2046.5,320.1z M1982.9,255.8
	L1982.9,255.8l-63.6-63.6l63.6-63.6v0v0l63.6,63.6L1982.9,255.8L1982.9,255.8z"/>
</svg>
