<?xml version="1.0" encoding="utf-8"?>
<!-- Generator: Adobe Illustrator 24.0.3, SVG Export Plug-In . SVG Version: 6.00 Build 0)  -->
<svg version="1.1" id="Layer_1" xmlns="http://www.w3.org/2000/svg" xmlns:xlink="http://www.w3.org/1999/xlink" x="0px" y="0px"
	 viewBox="0 0 556.8 201.6" style="enable-background:new 0 0 556.8 201.6;" xml:space="preserve">
<style type="text/css">
	.st0{fill-rule:evenodd;clip-rule:evenodd;fill:#E0E0E0;}
</style>
<g>
	<path class="st0" d="M284.1,57.7c-7.9,0-14.4-2.8-19.9-7.9c-1.7-1.6-3.4-1.7-5.4-1.4c-4.2,0.8-8.5,1.6-12.8,1.6
		c-1.7,0-3.4-0.2-5.1-0.6c-2.5-0.5-3.1-1.9-1.9-4.2c1.5-2.9,3.9-4.8,6.3-6.8c2.4-1.9,4.8-3.8,7.3-5.7c1.5-1.2,2.3-2.7,2.3-4.7
		c0.4-9.6,4.1-17.4,12.1-23c4.6-3.2,9.7-4.7,15.2-4.5c6.7,0.2,12.6,2.7,17.7,7.1c0.3,0.3,0.6,0.5,0.9,0.8c1.7,1.6,3.6,1.9,5.9,1.3
		c4.2-1.1,8.6-1.7,13-1.7c1.8,0,3.6,0.2,5.3,0.9c1.8,0.8,2.2,1.8,1.3,3.6c-1.6,3.4-4.4,5.7-7.2,8c-1.6,1.3-3.2,2.8-5,3.8
		c-3,1.7-3.7,4.4-4,7.6c-0.8,11.7-7.6,20.3-18,24.2c-1.3,0.5-2.6,0.8-3.9,1.1C286.8,57.5,285.3,57.9,284.1,57.7z"/>
	<path class="st0" d="M117.3,141.6c0.2,0.6-0.2,0.9-0.4,1.3c-5.2,10.7-10.4,21.5-15.6,32.2c-2.2,4.5-4.2,9.1-6.5,13.5
		c-3.1,5.8-8.1,9.2-14.4,10.4c-4.5,0.9-8.7,0.1-12.1-3.4c-1.8-1.9-2.7-4.1-3-6.6c-0.6-5.7-1-11.4-1.6-17.1c-0.2-1.9-0.8-3.8-1.3-6.2
		c-0.8,1.5-1.5,2.6-2,3.7c-2.7,5.6-5.4,11.2-8.1,16.7c-1.6,3.3-3.6,6.3-6.3,8.8c-5.1,4.7-14,5.8-19.4,2.3c-3.1-2-4.7-4.9-5.1-8.5
		c-0.8-7.8-1.5-15.6-2.2-23.4c-0.7-7-1.3-13.9-2-20.9c-0.3-2.6-0.3-2.6,2.4-2.6c3.3,0,6.7,0,10,0c1,0,1.4,0.2,1.5,1.3
		c0.4,5.5,1,10.9,1.5,16.4c0.7,7.3,1.4,14.5,2.1,21.8c0.1,1.5,1.3,2.5,1.8,3.8c0.2,0.4,0.5,0.3,0.7,0.1c1.5-1.1,2.9-2.2,3.8-4
		c6-12.5,12.1-25,18.1-37.6c0.7-1.4,1.4-1.9,3-1.8c3.7,0.1,7.5,0.1,11.2,0c1,0,1.6,0.1,1.7,1.4c0.4,5.2,0.9,10.3,1.4,15.5
		c0.6,5.9,1.1,11.7,1.7,17.6c0.1,1.4,0.3,2.8,0.4,4.2c0,0.2,0,0.4,0,0.6c0,1.7,1,2.9,2.1,4c0.4,0.4,3.3-1.7,3.8-2.7
		c4.6-9.6,9.2-19.1,13.9-28.7c1.8-3.6,3.5-7.3,5.2-10.9c0.2-0.5,0.4-0.9,1.1-0.9C108.8,141.8,113.1,141.3,117.3,141.6z"/>
	<path class="st0" d="M499.7,141.8c10.5,0,21.1,0,31.6,0c1.4,0,1.7,0.3,1.4,1.7c-0.6,2.6-1.1,5.3-1.6,8c-0.1,0.7-0.4,1-1.1,0.9
		c-0.4,0-0.7,0-1.1,0c-17.6,0-35.3,0-52.9,0c-2.7,0-3.5,0.7-4,3.4c-0.5,2.6-0.9,5.3-1.5,7.8c-0.3,1.4,0.1,1.6,1.3,1.6
		c12.9,0,25.8,0,38.7,0c3.4,0,6.7-0.1,10.1,0.2c3.3,0.3,5.4,3.1,4.8,6.4c-1.3,6.5-2.5,12.9-3.8,19.4c-1,5.2-4.7,8.3-9.9,8.2
		c-19.4-0.1-38.8,0-58.2,0c-1.3,0-1.9-0.1-1.5-1.7c0.6-2.3,1-4.7,1.3-7.1c0.2-1.4,0.9-1.8,2.3-1.8c11.5,0.1,23.1,0,34.6,0
		c3.9,0,7.9,0,11.8,0c4.3-0.1,7.2-2.9,7.5-7.1c0.2-3.5-1.9-5.7-5.8-5.8c-1.6,0-3.2,0-4.8,0c-12.7,0-25.3,0-38,0c-4,0-5.8-2-5.6-5.9
		c0.1-0.8,0.2-1.7,0.4-2.5c1.2-6,2.3-12,3.6-18c1-4.6,4.6-7.4,9.3-7.4C479,141.8,489.3,141.8,499.7,141.8z"/>
	<path class="st0" d="M158,199.3c-8.6,0-17.1,0-25.7,0c-5.8,0-9.5-3.2-10.2-8.8c-0.3-2.4,0.5-4.7,0.9-7c1.8-9.7,3.8-19.3,5.6-29
		c1.3-6.8,8.2-12.7,15.2-12.7c17.2,0,34.5,0,51.7,0c5.6,0,10.1,4.2,10.1,9.7c0,2.7-0.9,5.3-1.4,8c-1.8,9.2-3.5,18.4-5.4,27.5
		c-1.4,6.9-8.2,12.3-15.3,12.3C175.1,199.3,166.6,199.3,158,199.3z M160.6,188.7C160.6,188.7,160.6,188.7,160.6,188.7
		c5.8,0,11.6,0,17.4,0c4.8,0,6.9-1.7,7.9-6.4c1.5-7.6,3-15.2,4.5-22.8c0.9-5-1-7.2-6.1-7.2c-11.5,0-23.1,0-34.6,0
		c-4.5,0-6.8,1.7-7.7,6.1c-1.7,8-3.2,16-4.7,23.9c-0.2,0.9-0.2,1.9,0,2.9c0.5,2.1,2.3,3.5,4.9,3.5
		C148.3,188.7,154.5,188.7,160.6,188.7z"/>
	<path class="st0" d="M503.8,113c-4.9-0.1-8.4-2.4-10.9-6.3c-6.8-10.6-13.6-21.2-20.4-31.8c-0.4-0.6-0.8-1.3-1.3-1.9
		c-1.1-1.4-2.5-2-4.2-1.6c-1.8,0.4-2.7,1.7-3,3.4c-0.7,3.6-1.4,7.3-2.2,10.9c-1.7,8.7-3.5,17.3-5.2,26c-0.2,0.9-0.6,1.3-1.6,1.3
		c-3.8,0-7.7,0-11.5,0c-0.9,0-1.1-0.2-0.9-1.1c2.1-10.7,4.2-21.4,6.3-32.1c0.5-2.7,1.1-5.4,1.6-8.1c1.6-8.5,9.2-15.3,17.8-16.1
		c5.6-0.6,9.5,2,12.5,6.5c6.3,9.5,12.5,19,18.8,28.5c1,1.6,2.1,3.1,3.1,4.7c0.9,1.4,2.2,2.1,3.9,1.8c1.6-0.3,2.7-1.4,3-3
		c1-5,2-9.9,3-14.9c1.5-7.3,2.9-14.7,4.3-22.1c0.3-1.5,0.9-1.7,2.4-1.6c3.4,0.2,6.8,0.2,10.3,0.1c1.5,0,1.6,0.4,1.4,1.8
		c-2.7,13.3-5.4,26.7-8,40.1c-1.5,7.8-9.1,14.7-17,15.4C505.1,112.8,504.5,113.1,503.8,113z"/>
	<path class="st0" d="M278.2,174.6c0.8,0.5,1.6,0.6,2.4,0.7c2.3,0.2,3.5,1.7,3.9,3.8c1,5.7,1.8,11.4,2.5,17.2c0.4,3,0.3,3-2.9,3
		c-3.5,0-7,0-10.4,0c-0.8,0-1.1-0.1-1.2-1c-0.7-5.6-1.6-11.2-2.3-16.9c-0.5-4.2-1.7-5.6-5.9-5.6c-11.1-0.1-22.2,0-33.3,0
		c-2,0-2.8,0.8-3.2,2.7c-1.3,6.6-2.6,13.1-3.8,19.7c-0.2,1-0.6,1.2-1.5,1.2c-3.6,0-7.3,0-10.9,0c-1.8,0-1.9-0.1-1.5-1.9
		c0.9-4.5,1.8-9.1,2.7-13.6c1.1-5.6,2.2-11.1,3.2-16.7c0.3-1.5,0.8-1.9,2.3-1.9c7.1,0.1,14.2-0.1,21.3,0.1c4.2,0.1,8.5,0.3,12.7,0.1
		c5.6-0.2,11.2-0.1,16.8-0.2c4.8-0.1,8.2-4.9,6.7-9.5c-0.6-2-2.5-3.3-5.1-3.3c-7,0-13.9,0-20.9,0c-9.8,0-19.6,0-29.3,0
		c-1.4,0-1.7-0.3-1.4-1.7c0.6-2.4,1.1-4.8,1.4-7.2c0.2-1.3,0.7-1.7,2-1.7c11,0.1,22,0,33,0c10.2,0,20.4,0,30.5,0
		c2.2,0,4,0.7,5.2,2.7c0.8,1.3,0.7,2.8,0.5,4.1c-1,5.3-2.1,10.7-3.1,16c-0.7,3.5-2.9,5.7-6.1,6.9C280.7,172,279.5,173.3,278.2,174.6
		z"/>
	<path class="st0" d="M66.3,55.5c7.8,0,15.5,0,23.3,0c6.8,0,10.9,5.2,9.6,11.9c-2.9,14.7-5.8,29.4-8.6,44.1
		c-0.2,1.1-0.6,1.6-1.8,1.6c-3.7-0.1-7.4-0.1-11,0c-1,0-1.4-0.1-1.2-1.4c2.6-12.7,5.1-25.4,7.6-38.1c0.1-0.6,0.2-1.3,0.3-1.9
		c0.4-3.4-1.8-5.6-5.8-5.7c-4.4-0.1-8.8,0-13.2,0c-5.6,0-11.2,0-16.8,0c-4.5,0-6.9,1.9-7.8,6.3c-0.7,3.7-1.4,7.4-2.3,11.1
		c-0.3,1.3,0.1,1.6,1.4,1.6c9.3,0,18.6,0,28-0.1c1.4,0,1.7,0.3,1.4,1.7c-0.6,2.5-1.1,5-1.5,7.5c-0.2,1.1-0.6,1.5-1.8,1.5
		c-9.4,0-18.7,0-28.1-0.1c-1.3,0-1.8,0.3-2.1,1.7c-0.9,4.9-1.9,9.9-2.8,14.8c-0.2,0.9-0.5,1.1-1.2,1.1c-3.9,0-7.9-0.1-11.8,0
		c-1.1,0-1.2-0.4-1-1.3c2.7-13.5,5.4-27.1,8.1-40.7c0.5-2.6,0.8-5.3,2.4-7.6c3.3-5,7.7-8,13.9-7.9C51.1,55.5,58.7,55.5,66.3,55.5z"
		/>
	<path class="st0" d="M363.2,113c-7.9,0-15.7,0-23.6,0c-4.6,0-7.9-2-9.8-6.3c-1.1-2.6-0.5-5.2,0-7.9c2-10.1,4-20.2,6-30.3
		c1.5-7.6,8.9-13.1,15.7-13.1c15.4,0.2,30.7,0.1,46.1,0.1c2.1,0,2.1,0,1.7,2c-0.5,2.5-1,5-1.5,7.5c-0.1,0.7-0.4,0.9-1.2,0.9
		c-13.4-0.1-26.7-0.1-40.1,0c-4.4,0-6.5,1.9-7.5,6.2c-0.4,1.8-0.7,3.6-1.1,5.3c-0.3,1.2,0.1,1.5,1.2,1.5c8,0,16,0,24,0
		c5.5,0,11,0,16.5,0c1.2,0,1.5,0.2,1.2,1.5c-0.6,2.5-1.1,5.1-1.5,7.7c-0.2,1.2-0.6,1.4-1.8,1.4c-12.7,0-25.4,0-38.1,0
		c-3.4,0-4.2,0.7-4.7,4.1c-0.1,1.1-0.5,2.2-0.6,3.3c-0.2,3.4,1.6,5.4,5,5.6c0.6,0,1.1,0,1.7,0c12.6,0,25.1,0,37.7,0
		c1.8,0,1.8,0.1,1.5,1.8c-0.5,2.4-1,4.7-1.4,7.1c-0.2,1.2-0.6,1.7-2,1.7C379,113,371.1,113,363.2,113z"/>
	<path class="st0" d="M412.1,141.8c8,0,16-0.1,24,0c5.9,0.1,10.4,5.3,9.5,10.9c-0.5,3.2-1.2,6.4-1.9,9.6c-1.6,7.9-3.2,15.9-4.7,23.8
		c-1.4,7.5-8.1,13.1-15.7,13.1c-15.5,0-30.9,0-46.4,0c-1.3,0-1.8-0.1-1.5-1.7c2.1-10.4,4.1-20.8,6.1-31.2c0.2-0.8,0.4-1.3,1.3-1.2
		c4,0.3,8,0.3,12.1,0.1c1,0,0.6,0.8,0.6,1.2c-0.4,2.4-0.9,4.8-1.3,7.3c-0.9,4.6-1.7,9.2-2.7,13.8c-0.2,0.9-0.1,1.3,0.9,1.3
		c8.9,0,17.8,0,26.8-0.1c3.7,0,6-2.3,6.8-6.6c1.5-7.7,2.9-15.4,4.4-23.1c0.8-4.2-1.2-6.6-5.5-6.6c-13,0-25.9,0-38.9,0
		c-1.4,0-1.7-0.4-1.4-1.7c0.6-2.4,1.1-4.9,1.5-7.4c0.2-1.2,0.6-1.6,1.8-1.6C396,141.8,404,141.8,412.1,141.8
		C412.1,141.8,412.1,141.8,412.1,141.8z"/>
	<path class="st0" d="M180.3,113c-7.9,0-15.7,0-23.6,0c-5.6,0-9.3-2.9-10.3-7.9c-0.5-2.2,0.2-4.4,0.6-6.6c2.7-14,5.6-27.9,8.3-41.8
		c0.2-1.1,0.6-1.5,1.7-1.4c3.7,0.4,7.4,0.2,11.2,0.2c1.3,0,1.3,0.6,1.1,1.5c-1.8,8.8-3.5,17.6-5.3,26.5c-0.8,4.3-1.7,8.6-2.5,12.9
		c-0.6,3.5,1.2,5.7,5.1,6.1c0.7,0.1,1.3,0,2,0c12.4,0,24.8,0,37.2,0c1.8,0,1.8,0,1.5,1.8c-0.5,2.5-1,4.9-1.4,7.4
		c-0.2,1.1-0.7,1.4-1.8,1.4C196.1,113,188.2,113,180.3,113C180.3,113,180.3,113,180.3,113z"/>
	<path class="st0" d="M336.4,199.3c-7.8,0-15.6,0-23.4,0c-6.8,0-11-5.2-9.7-11.9c2.8-14.4,5.6-28.7,8.4-43.1
		c0.5-2.5,0.5-2.5,3.1-2.5c3.3,0,6.7,0,10,0c1.1,0,1.3,0.2,1.1,1.4c-2.6,13-5.1,25.9-7.6,38.9c-0.8,4.2,1.1,6.6,5.3,6.6
		c13,0,25.9,0,38.9,0c1.9,0,1.8,0,1.5,1.9c-0.5,2.4-0.9,4.8-1.4,7.3c-0.2,1.1-0.6,1.5-1.8,1.5C352.6,199.2,344.5,199.3,336.4,199.3z
		"/>
	<path class="st0" d="M266.3,113c-1.9,0-3.7,0-5.6,0c-1,0-1.4-0.1-1.1-1.3c2-9.1,3.9-18.2,5.9-27.2c0.4-2,0.9-4,1.3-6
		c0.2-1.1,0.7-1.4,1.7-1.3c1.6,0.1,3.1,0.2,4.7,0.2c2.1,0,4.2-0.1,6.3-0.2c1.2-0.1,1.5,0.4,1.3,1.5c-1.6,7.5-3.3,15-4.9,22.5
		c-0.8,3.6-1.6,7.2-2.3,10.8c-0.2,0.9-0.5,1.2-1.4,1.2C270.3,113,268.3,113,266.3,113z"/>
	<path class="st0" d="M550.6,200.6c0.9-1,1.1-2.1,1.5-3.1c0.3-0.7,0.5-1.4,0.9-2.1s1-0.8,1.7-0.7c0.7,0.1,1.1,0.7,1.1,1.3
		c0.1,1.7,0,3.3,0,5c0,0.4-0.2,0.7-0.6,0.7c-0.5,0-0.6-0.3-0.6-0.7c0-1.4,0-2.7,0-4.1c0-0.3,0.2-0.8-0.4-0.8c-0.3,0-0.4,0.3-0.5,0.6
		c-0.5,1.3-1,2.6-1.5,3.9c-0.3,0.9-1,1.3-1.9,1c-0.9-0.2-1.1-0.9-1.1-1.7c0-1,0-2,0-3c0-0.3,0.1-0.8-0.3-0.9c-0.4,0-0.5,0.4-0.6,0.8
		c-0.5,1.3-1,2.6-1.4,4c-0.2,0.6-0.4,1.1-1.1,0.9c-0.8-0.3-0.2-0.9-0.1-1.2c0.4-1.4,1-2.7,1.5-4.1c0.4-1,0.9-1.8,2.1-1.5
		c1.2,0.2,1.2,1.2,1.2,2.1C550.4,198,550.2,199.2,550.6,200.6z"/>
	<path class="st0" d="M543,194.7c0.6,0,1.2,0,1.8,0c0.4,0,0.7,0.1,0.7,0.6c0,0.4-0.3,0.5-0.6,0.5c-1.5-0.2-1.5,0.7-1.4,1.8
		c0,1.1,0,2.1,0,3.2c0,0.4,0,0.9-0.6,0.9c-0.6,0-0.6-0.4-0.6-0.8c0-1.2,0-2.4,0-3.6c0-0.8,0-1.4-1.1-1.3c-0.4,0-0.8-0.1-0.8-0.6
		c0.1-0.6,0.6-0.5,0.9-0.5C541.9,194.7,542.5,194.7,543,194.7C543,194.7,543,194.7,543,194.7z"/>
</g>
</svg>
