<?xml version="1.0" encoding="utf-8"?>
<!-- Generator: Adobe Illustrator 24.0.3, SVG Export Plug-In . SVG Version: 6.00 Build 0)  -->
<svg version="1.1" id="Layer_1" xmlns="http://www.w3.org/2000/svg" xmlns:xlink="http://www.w3.org/1999/xlink" x="0px" y="0px"
	 viewBox="0 0 2687 2278.4" style="enable-background:new 0 0 2687 2278.4;" xml:space="preserve">
<style type="text/css">
	.st0{fill:#252525;}
</style>
<g>
	<rect x="639.5" class="st0" width="1" height="2278.4"/>
	<rect x="511.6" class="st0" width="1" height="2278.4"/>
	<rect x="383.7" class="st0" width="1" height="2278.4"/>
	<rect x="767.4" class="st0" width="1" height="2278.4"/>
	<rect x="255.8" class="st0" width="1" height="2278.4"/>
	<rect x="127.9" class="st0" width="1" height="2278.4"/>
	<rect class="st0" width="1" height="2278.4"/>
	<rect x="1151.2" class="st0" width="1" height="2278.4"/>
	<rect x="1023.3" class="st0" width="1" height="2278.4"/>
	<rect x="895.3" class="st0" width="1" height="2278.4"/>
	<rect x="1279.1" class="st0" width="1" height="2278.4"/>
	<rect x="1662.8" class="st0" width="1" height="2278.4"/>
	<rect x="1534.9" class="st0" width="1" height="2278.4"/>
	<rect x="1407" class="st0" width="1" height="2278.4"/>
	<rect x="1790.7" class="st0" width="1" height="2278.4"/>
	<rect x="2174.4" class="st0" width="1" height="2278.4"/>
	<rect x="2046.5" class="st0" width="1" height="2278.4"/>
	<rect x="1918.6" class="st0" width="1" height="2278.4"/>
	<rect x="2302.3" class="st0" width="1" height="2278.4"/>
	<rect x="2558.1" class="st0" width="1" height="2278.4"/>
	<rect x="2430.2" class="st0" width="1" height="2278.4"/>
	<rect x="2686" class="st0" width="1" height="2278.4"/>
</g>
</svg>
