<?xml version="1.0" encoding="utf-8"?>
<!-- Generator: Adobe Illustrator 24.0.3, SVG Export Plug-In . SVG Version: 6.00 Build 0)  -->
<svg version="1.1" id="Layer_1" xmlns="http://www.w3.org/2000/svg" xmlns:xlink="http://www.w3.org/1999/xlink" x="0px" y="0px"
	 viewBox="0 0 208.8 129.6" style="enable-background:new 0 0 208.8 129.6;" xml:space="preserve">
<style type="text/css">
	.st0{fill:#FFFFFF;}
</style>
<g>
	<path class="st0" d="M208.4,49L160.8,0.4c-0.5-0.6-1.4-0.6-2,0l-13.4,12.7c-0.3,0.3-0.4,0.6-0.4,1s0.1,0.7,0.4,1l22.9,23.7l-26,0
		c-30.2,0-60.5,0-90.7,0c-2.9,0-6.7,0.1-10.5,0.6C24.8,41.7,11.1,51.5,4.3,65.6c-6.5,13.5-5.6,28.8,2.3,42.2c0,0,0,0,0,0.1
		c13.8,20.5,38.1,21.7,39.2,21.7c0,0,0,0,0,0c17,0,30.4-6.3,39.9-18.6c10.1-13.1,12-27.6,5.8-42.9c-0.9-2.2-2-4.2-3.2-6.4
		c-0.2-0.3-0.3-0.6-0.5-1h80.7l-23.4,23.5c-0.5,0.6-0.6,1.4,0,2l13.3,13.5c0.3,0.3,0.6,0.4,1,0.4s0.7-0.2,1-0.4l48-48.6
		C208.9,50.4,208.9,49.6,208.4,49z M159.4,96.6l-11.3-11.4l24.9-24.9c0.4-0.4,0.5-1,0.3-1.5c-0.2-0.5-0.7-0.9-1.3-0.9H85.5
		c-0.5,0-1,0.3-1.2,0.7s-0.3,0.9-0.1,1.4c0.5,1.1,1.1,2.1,1.6,3.1c1.1,2.1,2.2,4.1,3,6.1c5.8,14.4,4,27.9-5.4,40.1
		c-8.9,11.6-21.6,17.5-37.6,17.5c0,0,0,0,0,0c-0.2,0-23.9-1.2-36.8-20.5C1.6,93.8,0.8,79.4,6.9,66.8c6.4-13.3,19.2-22.5,34.5-24.6
		c3.6-0.5,7.3-0.6,10.1-0.6c30.2,0,60.5,0,90.7,0l28.4,0c0.6,0,1.1-0.3,1.3-0.9l0.3-0.7c0.2-0.5,0.1-1.1-0.3-1.6l-23.5-24.4
		l11.4-10.7L205.4,50L159.4,96.6z"/>
	<path class="st0" d="M50.1,57.7c-8.3-0.7-16.6,2-22.8,7.6c-9.6,8.6-11.4,22.8-4.1,33.1c5.3,7.4,13.1,11.6,23.2,12.3
		c0.6,0.1,1.3,0.1,1.9,0.1c5,0,10.5-1.6,15.2-4.5c6.5-4,11-10.6,12.3-17.9c1.2-7-0.4-13.8-4.7-19.3C65.9,62.5,58.5,58.5,50.1,57.7z
		 M73,87.8c-1.2,6.5-5.2,12.4-11,16c-4.8,3-10.4,4.4-15.4,4c0,0,0,0,0,0c-9.3-0.7-16.2-4.4-21.1-11.1c-6.5-9-4.9-21.7,3.7-29.3
		c5.1-4.5,11.4-7,18.2-7c0.8,0,1.7,0,2.5,0.1c7.6,0.7,14.3,4.3,18.9,10.3C72.6,75.6,74.1,81.7,73,87.8z"/>
</g>
</svg>
