<?xml version="1.0" encoding="utf-8"?>
<!-- Generator: Adobe Illustrator 24.0.3, SVG Export Plug-In . SVG Version: 6.00 Build 0)  -->
<svg version="1.1" id="Layer_1" xmlns="http://www.w3.org/2000/svg" xmlns:xlink="http://www.w3.org/1999/xlink" x="0px" y="0px"
	 viewBox="0 0 319.1 166.7" style="enable-background:new 0 0 319.1 166.7;" xml:space="preserve">
<style type="text/css">
	.st0{fill:#D9A555;}
</style>
<g>
	<path class="st0" d="M318.5,48.4L271.8,0.6c-0.8-0.8-2-0.8-2.8-0.1L255.8,13c-0.4,0.4-0.6,0.9-0.6,1.4c0,0.5,0.2,1,0.6,1.4
		l21.5,22.3l-24.4,0c-29.7,0-59.3,0-89,0c-2.9,0-6.6,0.1-10.4,0.6c-16.1,2.3-29.7,12-36.4,26.1c-6.3,13.1-5.7,28,1.7,41H42.3
		l22.6-22.5c0.4-0.4,0.6-0.9,0.6-1.4c0-0.5-0.2-1.1-0.6-1.4L51.8,68.1c-0.8-0.7-2-0.7-2.8,0L0.6,115.2c-0.8,0.7-0.8,2-0.1,2.8
		c9.2,10.2,18.9,19.9,28.3,29.2c6.2,6.1,12.6,12.5,18.8,18.9c0.4,0.4,0.9,0.6,1.4,0.6c0.5,0,1-0.2,1.4-0.5l13.2-12.4
		c0.4-0.4,0.6-0.9,0.6-1.4c0-0.5-0.2-1-0.6-1.4l-21.5-22.3l33.9,0c27.4,0,54.9,0,82.3,0c0,0,0,0,0,0c16.9,0,30.2-6.2,39.7-18.6
		c10-13.1,12-27.5,5.8-42.8c-0.9-2.2-2-4.2-3.2-6.4c0,0,0,0,0-0.1h76.8l-22,22.1c-0.8,0.8-0.8,2,0,2.8l13.1,13.2
		c0.7,0.8,2.1,0.8,2.8,0l47.2-47.8C319.3,50.4,319.3,49.1,318.5,48.4z M269.9,94.7l-10.3-10.4l24-24.1c0.6-0.6,0.7-1.4,0.4-2.2
		c-0.3-0.7-1-1.2-1.8-1.2h-85c-0.7,0-1.3,0.4-1.7,1c-0.4,0.6-0.4,1.3-0.1,1.9c0.5,1,1.1,2.1,1.6,3.1c1.1,2,2.2,4,3,5.9
		c5.6,13.9,3.9,27-5.3,38.9c-8.8,11.4-20.8,17-36.6,17c0,0,0,0,0,0c-27.4,0-54.9,0-82.3,0l-37.6,0c-0.7,0-1.4,0.4-1.8,1.1l-0.3,0.6
		c-0.4,0.8-0.3,1.7,0.3,2.3l22.7,23.6L49,161.9c-5.8-6-11.7-11.9-17.5-17.6c-8.9-8.8-18.1-17.9-26.8-27.6l45.7-44.4L60.7,82
		l-24.6,24.4c-0.6,0.6-0.7,1.4-0.4,2.2c0.3,0.7,1,1.2,1.8,1.2h84.4c0.7,0,1.3-0.3,1.7-0.9c0.4-0.6,0.4-1.3,0.1-1.9
		c-0.1-0.3-0.2-0.5-0.3-0.7c-0.2-0.5-0.4-1-0.7-1.5c-7.2-12.1-7.9-26.1-2.1-38.3c6.2-12.9,18.7-21.8,33.4-23.9
		c3.5-0.5,7.1-0.6,9.8-0.6c29.7,0,59.3,0,89,0l28.2,0c0.8,0,1.5-0.5,1.8-1.2l0.3-0.7c0.3-0.7,0.2-1.6-0.4-2.2L260,14.5l10.3-9.7
		l44.1,45L269.9,94.7z"/>
	<path class="st0" d="M162.6,56.7c-8.3-0.7-16.6,2-22.8,7.6c-9.7,8.7-11.5,23-4.1,33.3c5.3,7.4,13.1,11.6,23.2,12.4
		c0.6,0.1,1.3,0.1,1.9,0.1c5.1,0,10.5-1.6,15.2-4.5c6.5-4.1,11.1-10.6,12.4-18c1.2-7-0.5-13.9-4.8-19.4
		C178.5,61.5,171,57.5,162.6,56.7z M184.5,86.8c-1.1,6.3-5,11.8-10.5,15.3c-4.6,2.9-10,4.3-14.7,3.9c0,0,0,0,0,0
		c-9-0.7-15.6-4.2-20.3-10.7c-6.2-8.6-4.7-20.7,3.5-28c4.9-4.4,11-6.7,17.4-6.7c0.8,0,1.6,0,2.4,0.1c7.3,0.6,13.7,4.1,18.2,9.9
		C184.1,75.2,185.5,81,184.5,86.8z"/>
</g>
</svg>
