<?xml version="1.0" encoding="utf-8"?>
<!-- Generator: Adobe Illustrator 24.0.3, SVG Export Plug-In . SVG Version: 6.00 Build 0)  -->
<svg version="1.1" id="Layer_1" xmlns="http://www.w3.org/2000/svg" xmlns:xlink="http://www.w3.org/1999/xlink" x="0px" y="0px"
	 viewBox="0 0 190 190" style="enable-background:new 0 0 190 190;" xml:space="preserve">
<style type="text/css">
	.st0{fill:#FFFFFF;}
</style>
<g>
	<path class="st0" d="M44.1,94L23.3,73.2c-0.5-0.5-1.5-0.5-2,0L0.4,94c-0.6,0.6-0.6,1.5,0,2l20.9,20.9c0.3,0.3,0.6,0.4,1,0.4
		s0.7-0.1,1-0.4L44.1,96C44.7,95.5,44.7,94.6,44.1,94z M22.3,113.9L3.4,95l18.9-18.9L41.1,95L22.3,113.9z"/>
	<path class="st0" d="M94,70.8L70.3,94.5c-0.3,0.3-0.4,0.6-0.4,1s0.1,0.7,0.4,1L94,120.2c0.3,0.3,0.6,0.4,1,0.4s0.7-0.1,1-0.4
		l23.7-23.7c0.6-0.6,0.6-1.5,0-2L96,70.8C95.5,70.3,94.5,70.3,94,70.8z M95,117.2L73.3,95.5L95,73.9l21.7,21.7L95,117.2z"/>
	<path class="st0" d="M57.4,80.8c0.6,0.6,1.5,0.6,2,0L95,45.1l35.6,35.6c0.3,0.3,0.6,0.4,1,0.4s0.7-0.1,1-0.4l20.9-20.9
		c0.6-0.6,0.6-1.5,0-2L96,0.4c-0.6-0.6-1.5-0.6-2,0L36.5,57.9c-0.6,0.6-0.6,1.5,0,2L57.4,80.8z M95,3.4l55.5,55.5l-18.9,18.9
		L96,42.1c-0.5-0.5-1.5-0.5-2,0L58.4,77.7L39.5,58.9L95,3.4z"/>
	<path class="st0" d="M189.6,94l-20.9-20.9c-0.5-0.5-1.5-0.5-2,0L145.9,94c-0.3,0.3-0.4,0.6-0.4,1s0.1,0.7,0.4,1l20.9,20.9
		c0.3,0.3,0.6,0.4,1,0.4s0.7-0.1,1-0.4L189.6,96C190.1,95.4,190.1,94.5,189.6,94z M167.7,113.8L148.9,95l18.9-18.9L186.6,95
		L167.7,113.8z"/>
	<path class="st0" d="M132.6,109.2c-0.6-0.6-1.5-0.6-2,0L95,144.9l-35.6-35.6c-0.6-0.6-1.5-0.6-2,0l-20.9,20.9c-0.6,0.6-0.6,1.5,0,2
		L57.4,153c0,0,0,0,0,0L94,189.6c0.3,0.3,0.6,0.4,1,0.4s0.7-0.1,1-0.4l57.5-57.5c0.6-0.6,0.6-1.5,0-2L132.6,109.2z M95,186.6
		L59.4,151h0l-19.9-19.9l18.9-18.9L94,147.9c0.5,0.5,1.5,0.5,2,0l35.6-35.6l18.9,18.9L95,186.6z"/>
</g>
</svg>
