<?xml version="1.0" encoding="utf-8"?>
<!-- Generator: Adobe Illustrator 24.0.3, SVG Export Plug-In . SVG Version: 6.00 Build 0)  -->
<svg version="1.1" id="Layer_1" xmlns="http://www.w3.org/2000/svg" xmlns:xlink="http://www.w3.org/1999/xlink" x="0px" y="0px"
	 viewBox="0 0 137.6 110.6" style="enable-background:new 0 0 137.6 110.6;" xml:space="preserve">
<style type="text/css">
	.st0{fill:#FF3B52;}
	.st1{fill:none;}
</style>
<g>
	<polygon class="st0" points="8.5,110.6 8.5,8.5 129.1,8.5 129.1,110.6 137.6,110.6 137.6,0 0,0 0,110.6 	"/>
	<g>
		<circle class="st1" cx="68.8" cy="67.8" r="33.2"/>
		<path class="st0" d="M68.8,26.1c-23,0-41.8,18.7-41.8,41.8c0,23,18.7,41.8,41.8,41.8c23,0,41.8-18.7,41.8-41.8
			C110.6,44.8,91.8,26.1,68.8,26.1z M68.8,101.1c-18.3,0-33.2-14.9-33.2-33.2s14.9-33.2,33.2-33.2S102,49.5,102,67.8
			S87.1,101.1,68.8,101.1z"/>
	</g>
	<rect x="64.5" y="48.8" class="st0" width="8.5" height="38"/>
</g>
</svg>
